<svg width="32" height="32" viewBox="0 0 32 32" fill="none" xmlns="http://www.w3.org/2000/svg">
<path fill-rule="evenodd" clip-rule="evenodd" d="M27.5554 13.2056H3.79004C3.23804 13.2056 2.79004 12.7576 2.79004 12.2056C2.79004 11.6536 3.23804 11.2056 3.79004 11.2056H27.5554C28.1074 11.2056 28.5554 11.6536 28.5554 12.2056C28.5554 12.7576 28.1074 13.2056 27.5554 13.2056" fill="#8456EC"/>
<path fill-rule="evenodd" clip-rule="evenodd" d="M21.602 18.4126C21.05 18.4126 20.5967 17.9646 20.5967 17.4126C20.5967 16.8606 21.038 16.4126 21.59 16.4126H21.602C22.154 16.4126 22.602 16.8606 22.602 17.4126C22.602 17.9646 22.154 18.4126 21.602 18.4126" fill="#8456EC"/>
<path fill-rule="evenodd" clip-rule="evenodd" d="M15.685 18.4126C15.133 18.4126 14.6797 17.9646 14.6797 17.4126C14.6797 16.8606 15.121 16.4126 15.673 16.4126H15.685C16.237 16.4126 16.685 16.8606 16.685 17.4126C16.685 17.9646 16.237 18.4126 15.685 18.4126" fill="#8456EC"/>
<path fill-rule="evenodd" clip-rule="evenodd" d="M9.75667 18.4126C9.20467 18.4126 8.75 17.9646 8.75 17.4126C8.75 16.8606 9.19267 16.4126 9.74467 16.4126H9.75667C10.3087 16.4126 10.7567 16.8606 10.7567 17.4126C10.7567 17.9646 10.3087 18.4126 9.75667 18.4126" fill="#8456EC"/>
<path fill-rule="evenodd" clip-rule="evenodd" d="M21.602 23.595C21.05 23.595 20.5967 23.147 20.5967 22.595C20.5967 22.043 21.038 21.595 21.59 21.595H21.602C22.154 21.595 22.602 22.043 22.602 22.595C22.602 23.147 22.154 23.595 21.602 23.595" fill="#8456EC"/>
<path fill-rule="evenodd" clip-rule="evenodd" d="M15.685 23.595C15.133 23.595 14.6797 23.147 14.6797 22.595C14.6797 22.043 15.121 21.595 15.673 21.595H15.685C16.237 21.595 16.685 22.043 16.685 22.595C16.685 23.147 16.237 23.595 15.685 23.595" fill="#8456EC"/>
<path fill-rule="evenodd" clip-rule="evenodd" d="M9.75667 23.595C9.20467 23.595 8.75 23.147 8.75 22.595C8.75 22.043 9.19267 21.595 9.74467 21.595H9.75667C10.3087 21.595 10.7567 22.043 10.7567 22.595C10.7567 23.147 10.3087 23.595 9.75667 23.595" fill="#8456EC"/>
<path fill-rule="evenodd" clip-rule="evenodd" d="M21.0586 7.72125C20.5066 7.72125 20.0586 7.27325 20.0586 6.72125V2.33325C20.0586 1.78125 20.5066 1.33325 21.0586 1.33325C21.6106 1.33325 22.0586 1.78125 22.0586 2.33325V6.72125C22.0586 7.27325 21.6106 7.72125 21.0586 7.72125" fill="#8456EC"/>
<path fill-rule="evenodd" clip-rule="evenodd" d="M10.2871 7.72125C9.73511 7.72125 9.28711 7.27325 9.28711 6.72125V2.33325C9.28711 1.78125 9.73511 1.33325 10.2871 1.33325C10.8391 1.33325 11.2871 1.78125 11.2871 2.33325V6.72125C11.2871 7.27325 10.8391 7.72125 10.2871 7.72125" fill="#8456EC"/>
<mask id="mask0_982_1182" style="mask-type:alpha" maskUnits="userSpaceOnUse" x="2" y="3" width="27" height="27">
<path fill-rule="evenodd" clip-rule="evenodd" d="M2.66699 3.43872H28.667V29.9999H2.66699V3.43872Z" fill="white"/>
</mask>
<g mask="url(#mask0_982_1182)">
<path fill-rule="evenodd" clip-rule="evenodd" d="M10.0283 5.43872C6.57099 5.43872 4.66699 7.28272 4.66699 10.6307V22.6961C4.66699 26.1174 6.57099 28.0001 10.0283 28.0001H21.3057C24.763 28.0001 26.667 26.1521 26.667 22.7974V10.6307C26.6723 8.98405 26.2297 7.70405 25.351 6.82405C24.447 5.91739 23.0537 5.43872 21.3177 5.43872H10.0283ZM21.3057 30.0001H10.0283C5.48833 30.0001 2.66699 27.2014 2.66699 22.6961V10.6307C2.66699 6.19339 5.48833 3.43872 10.0283 3.43872H21.3177C23.5963 3.43872 25.4803 4.12139 26.767 5.41072C28.0163 6.66539 28.6737 8.46939 28.667 10.6334V22.7974C28.667 27.2401 25.8457 30.0001 21.3057 30.0001V30.0001Z" fill="#8456EC"/>
</g>
</svg>
