<svg width="32" height="32" viewBox="0 0 32 32" fill="none" xmlns="http://www.w3.org/2000/svg">
<path fill-rule="evenodd" clip-rule="evenodd" d="M16.3333 11.3335C15.0467 11.3335 14 12.3802 14 13.6682C14 14.9548 15.0467 16.0002 16.3333 16.0002C17.62 16.0002 18.6667 14.9548 18.6667 13.6682C18.6667 12.3802 17.62 11.3335 16.3333 11.3335M16.3333 18.0002C13.944 18.0002 12 16.0575 12 13.6682C12 11.2775 13.944 9.3335 16.3333 9.3335C18.7227 9.3335 20.6667 11.2775 20.6667 13.6682C20.6667 16.0575 18.7227 18.0002 16.3333 18.0002" fill="#8456EC"/>
<mask id="mask0_1067_1143" style="mask-type:alpha" maskUnits="userSpaceOnUse" x="5" y="2" width="23" height="27">
<path fill-rule="evenodd" clip-rule="evenodd" d="M5.33301 2.66675H27.3323V28.6667H5.33301V2.66675Z" fill="white"/>
</mask>
<g mask="url(#mask0_1067_1143)">
<path fill-rule="evenodd" clip-rule="evenodd" d="M16.332 4.66675C11.3694 4.66675 7.33203 8.74275 7.33203 13.7507C7.33203 20.1227 14.8307 26.3307 16.332 26.6614C17.8334 26.3294 25.332 20.1214 25.332 13.7507C25.332 8.74275 21.2947 4.66675 16.332 4.66675V4.66675ZM16.332 28.6667C13.94 28.6667 5.33203 21.2641 5.33203 13.7507C5.33203 7.63875 10.2667 2.66675 16.332 2.66675C22.3974 2.66675 27.332 7.63875 27.332 13.7507C27.332 21.2641 18.724 28.6667 16.332 28.6667V28.6667Z" fill="#8456EC"/>
</g>
</svg>
